<svg xmlns="http://www.w3.org/2000/svg" xmlns:xlink="http://www.w3.org/1999/xlink" width="1240" height="2199" viewBox="0 0 1240 2199">
  <defs>
    <clipPath id="clip-path">
      <rect id="사각형_588" data-name="사각형 588" width="1232" height="604" rx="12" transform="translate(344 5145)" fill="rgba(255,255,255,0.1)"/>
    </clipPath>
    <linearGradient id="linear-gradient" x1="0.5" x2="0.5" y2="1" gradientUnits="objectBoundingBox">
      <stop offset="0" stop-color="#fff"/>
      <stop offset="1" stop-color="#555556"/>
    </linearGradient>
    <clipPath id="clip-path-3">
      <rect id="사각형_760" data-name="사각형 760" width="762" height="529" rx="16" transform="translate(17470 503)" fill="#e6e6e7" stroke="#bcbcc1" stroke-width="4"/>
    </clipPath>
    <clipPath id="clip-path-4">
      <rect id="사각형_790" data-name="사각형 790" width="252" height="548" rx="16" transform="translate(18312 495)" fill="none" stroke="#bcbcc1" stroke-width="4"/>
    </clipPath>
  </defs>
  <g id="그룹_3170" data-name="그룹 3170" transform="translate(-340 -5189)">
    <text id="As-Is" transform="translate(960 5208)" fill="#3a3a3b" font-size="20" font-family="Pretendard-SemiBold, Pretendard" font-weight="600" letter-spacing="-0.005em"><tspan x="-24.165" y="0">As-Is</tspan></text>
    <g id="그룹_2074" data-name="그룹 2074" transform="translate(64 5126)">
      <g id="사각형_579" data-name="사각형 579" transform="translate(276 134)" fill="#e6e6e7" stroke="#bcbcc1" stroke-width="4">
        <rect width="1240" height="612" rx="16" stroke="none"/>
        <rect x="2" y="2" width="1236" height="608" rx="14" fill="none"/>
      </g>
      <rect id="사각형_590" data-name="사각형 590" width="776" height="22" transform="translate(501 212)" fill="#bcbcc1"/>
      <rect id="사각형_563" data-name="사각형 563" width="164" height="30" transform="translate(814 253)" fill="#fff"/>
      <text id="Title" transform="translate(896 273)" fill="#99999a" font-size="14" font-family="Pretendard-Medium, Pretendard" font-weight="500" letter-spacing="-0.005em"><tspan x="-13.904" y="0">Title</tspan></text>
      <rect id="사각형_574" data-name="사각형 574" width="249" height="25" rx="12.5" transform="translate(501 362)" fill="#bcbcc1"/>
      <rect id="사각형_566" data-name="사각형 566" width="249" height="25" rx="12.5" transform="translate(765 327)" fill="#bcbcc1"/>
      <rect id="사각형_575" data-name="사각형 575" width="249" height="25" rx="12.5" transform="translate(765 362)" fill="#bcbcc1"/>
      <rect id="사각형_567" data-name="사각형 567" width="249" height="25" rx="12.5" transform="translate(1028 327)" fill="#bcbcc1"/>
      <rect id="사각형_576" data-name="사각형 576" width="249" height="25" rx="12.5" transform="translate(1028 362)" fill="#bcbcc1"/>
      <g id="그룹_1066" data-name="그룹 1066" transform="translate(0 1)">
        <rect id="사각형_627" data-name="사각형 627" width="17" height="3" transform="translate(1260 174)" fill="#fff"/>
        <rect id="사각형_629" data-name="사각형 629" width="17" height="3" transform="translate(1260 180)" fill="#fff"/>
        <rect id="사각형_628" data-name="사각형 628" width="13" height="3" transform="translate(1260 186)" fill="#fff"/>
      </g>
      <rect id="사각형_593" data-name="사각형 593" width="29" height="21" transform="translate(1248 146)" fill="#bcbcc1"/>
      <rect id="사각형_594" data-name="사각형 594" width="29" height="21" transform="translate(1214 146)" fill="#bcbcc1"/>
      <rect id="사각형_592" data-name="사각형 592" width="1232" height="1" transform="translate(280 206)" fill="#9e9ea4"/>
      <g id="마스크_그룹_33" data-name="마스크 그룹 33" transform="translate(-64 -5007)" clip-path="url(#clip-path)">
        <rect id="사각형_580" data-name="사각형 580" width="183" height="212" transform="translate(565 5423)" fill="#bcbcc1"/>
        <rect id="사각형_581" data-name="사각형 581" width="183" height="183" transform="translate(565 5672)" fill="#bcbcc1"/>
        <rect id="사각형_582" data-name="사각형 582" width="183" height="212" transform="translate(763 5423)" fill="#bcbcc1"/>
        <rect id="사각형_583" data-name="사각형 583" width="183" height="183" transform="translate(763 5672)" fill="#bcbcc1"/>
        <rect id="사각형_584" data-name="사각형 584" width="183" height="212" transform="translate(960 5423)" fill="#bcbcc1"/>
        <rect id="사각형_585" data-name="사각형 585" width="183" height="183" transform="translate(960 5672)" fill="#bcbcc1"/>
        <rect id="사각형_586" data-name="사각형 586" width="183" height="212" transform="translate(1158 5423)" fill="#bcbcc1"/>
        <rect id="사각형_587" data-name="사각형 587" width="183" height="183" transform="translate(1158 5672)" fill="#bcbcc1"/>
        <rect id="사각형_656" data-name="사각형 656" width="28" height="19" transform="translate(643 5441)" fill="#fff"/>
        <rect id="사각형_657" data-name="사각형 657" width="58" height="10" transform="translate(628 5575)" fill="#fff"/>
        <rect id="사각형_658" data-name="사각형 658" width="146" height="13" transform="translate(584 5590)" fill="#fff"/>
      </g>
      <rect id="사각형_558" data-name="사각형 558" width="115" height="29" transform="translate(501 161)" fill="#fff"/>
      <text id="Logo" transform="translate(559 181)" fill="#99999a" font-size="14" font-family="Pretendard-Medium, Pretendard" font-weight="500" letter-spacing="-0.005em"><tspan x="-15.816" y="0">Logo</tspan></text>
      <rect id="사각형_559" data-name="사각형 559" width="427" height="15" transform="translate(693 175)" fill="#fff"/>
      <text id="Main_Menu" data-name="Main Menu" transform="translate(907 188)" fill="#99999a" font-size="14" font-family="Pretendard-Medium, Pretendard" font-weight="500" letter-spacing="-0.005em"><tspan x="-34.802" y="0">Main Menu</tspan></text>
      <g id="그룹_1065" data-name="그룹 1065" transform="translate(0 1)">
        <rect id="사각형_591" data-name="사각형 591" width="55" height="15" transform="translate(1196 174)" fill="#fff"/>
        <text id="Lang" transform="translate(1224 187)" fill="#99999a" font-size="14" font-family="Pretendard-Medium, Pretendard" font-weight="500" letter-spacing="-0.005em"><tspan x="-15.57" y="0">Lang</tspan></text>
      </g>
      <g id="그룹_1062" data-name="그룹 1062" transform="translate(0 1)">
        <rect id="사각형_589" data-name="사각형 589" width="554" height="15" transform="translate(619 301)" fill="#fff"/>
        <text id="Partners" transform="translate(896 314)" fill="#99999a" font-size="14" font-family="Pretendard-Medium, Pretendard" font-weight="500" letter-spacing="-0.005em"><tspan x="-27.027" y="0">Partners</tspan></text>
      </g>
      <rect id="사각형_565" data-name="사각형 565" width="249" height="25" rx="12.5" transform="translate(501 327)" fill="#bcbcc1"/>
      <text id="Tab_Menu" data-name="Tab Menu" transform="translate(626 345)" fill="#7d7d7f" font-size="14" font-family="Pretendard-Medium, Pretendard" font-weight="500" letter-spacing="-0.005em"><tspan x="-31.224" y="0">Tab Menu</tspan></text>
      <text id="No." transform="translate(593 449)" fill="#99999a" font-size="14" font-family="Pretendard-Medium, Pretendard" font-weight="500" letter-spacing="-0.005em"><tspan x="-10.799" y="0">No.</tspan></text>
      <text id="Product_Name" data-name="Product Name" transform="translate(595 594)" fill="#99999a" font-size="14" font-family="Pretendard-Medium, Pretendard" font-weight="500" letter-spacing="-0.005em"><tspan x="-45.098" y="0">Product Name</tspan></text>
      <text id="Sub_Menu" data-name="Sub Menu" transform="translate(889 228)" fill="#7d7d7f" font-size="14" font-family="Pretendard-Medium, Pretendard" font-weight="500" letter-spacing="-0.005em"><tspan x="-31.843" y="0">Sub Menu</tspan></text>
    </g>
    <text id="제품_소개_페이지" data-name="제품 소개 페이지" transform="translate(960 5236)" fill="#555556" font-size="18" font-family="Pretendard-Regular, Pretendard" letter-spacing="-0.005em"><tspan x="-58.606" y="0">제품 소개 페이지</tspan></text>
    <text id="To-Be" transform="translate(960 6071)" fill="#3a3a3b" font-size="20" font-family="Pretendard-SemiBold, Pretendard" font-weight="600" letter-spacing="-0.005em"><tspan x="-27.583" y="0">To-Be</tspan></text>
    <text id="PC_Tablet_Mob_로_화면_너비가_변하더라도_구성_요소의_간격과_사이즈_변화가_최소화되도록_디자인했습니다." data-name="PC → Tablet → Mob 로 화면 너비가 변하더라도 구성 요소의 간격과 사이즈 변화가 최소화되도록 디자인했습니다." transform="translate(960 6099)" fill="#555556" font-size="18" font-family="Pretendard-Regular, Pretendard" letter-spacing="-0.005em"><tspan x="-399.969" y="0">PC → Tablet → Mob 로 화면 너비가 변하더라도 구성 요소의 간격과 사이즈 변화가 최소화되도록 디자인했습니다.</tspan></text>
    <g id="그룹_2075" data-name="그룹 2075" transform="translate(64 5990)">
      <g id="사각형_579-2" data-name="사각형 579" transform="translate(276 133)" fill="#e6e6e7" stroke="#bcbcc1" stroke-width="4">
        <rect width="1240" height="612" rx="16" stroke="none"/>
        <rect x="2" y="2" width="1236" height="608" rx="14" fill="none"/>
      </g>
      <rect id="사각형_592-2" data-name="사각형 592" width="1118" height="261" rx="12" transform="translate(337 186)" fill="#9e9ea4"/>
      <rect id="사각형_590-2" data-name="사각형 590" width="104" height="13" rx="6.5" transform="translate(385 335)" fill="#bcbcc1"/>
      <rect id="사각형_563-2" data-name="사각형 563" width="164" height="30" rx="15" transform="translate(385 289)" fill="#fff"/>
      <text id="Title-2" data-name="Title" transform="translate(467 309)" fill="#99999a" font-size="14" font-family="Pretendard-Medium, Pretendard" font-weight="500" letter-spacing="-0.005em"><tspan x="-13.904" y="0">Title</tspan></text>
      <g id="그룹_1066-2" data-name="그룹 1066" transform="translate(168 -17)">
        <rect id="사각형_627-2" data-name="사각형 627" width="19" height="3" rx="1.5" transform="translate(1260 174)" fill="#fff"/>
        <rect id="사각형_629-2" data-name="사각형 629" width="19" height="3" rx="1.5" transform="translate(1260 180)" fill="#fff"/>
        <rect id="사각형_628-2" data-name="사각형 628" width="13" height="3" rx="1.5" transform="translate(1260 186)" fill="#fff"/>
      </g>
      <rect id="사각형_593-2" data-name="사각형 593" width="21" height="21" rx="10.5" transform="translate(1346 151)" fill="#bcbcc1"/>
      <rect id="사각형_594-2" data-name="사각형 594" width="21" height="21" rx="10.5" transform="translate(1321 151)" fill="#bcbcc1"/>
      <g id="마스크_그룹_33-2" data-name="마스크 그룹 33" transform="translate(-64 -5008)" clip-path="url(#clip-path)">
        <rect id="사각형_580-2" data-name="사각형 580" width="265" height="265" rx="12" transform="translate(406 5637)" fill="#bcbcc1"/>
        <rect id="사각형_581-2" data-name="사각형 581" width="183" height="183" transform="translate(565 5837)" fill="#bcbcc1"/>
        <rect id="사각형_582-2" data-name="사각형 582" width="265" height="265" rx="12" transform="translate(689.001 5637)" fill="#bcbcc1"/>
        <rect id="사각형_583-2" data-name="사각형 583" width="183" height="183" transform="translate(763 5837)" fill="#bcbcc1"/>
        <rect id="사각형_584-2" data-name="사각형 584" width="265" height="265" rx="12" transform="translate(970.999 5637)" fill="#bcbcc1"/>
        <rect id="사각형_585-2" data-name="사각형 585" width="183" height="183" transform="translate(960 5837)" fill="#bcbcc1"/>
        <rect id="사각형_586-2" data-name="사각형 586" width="265" height="265" rx="12" transform="translate(1254 5637)" fill="#bcbcc1"/>
        <rect id="사각형_587-2" data-name="사각형 587" width="183" height="183" transform="translate(1158 5837)" fill="#bcbcc1"/>
        <rect id="사각형_656-2" data-name="사각형 656" width="24" height="24" rx="6" transform="translate(422 5661)" fill="#fff"/>
        <rect id="사각형_657-2" data-name="사각형 657" width="72" height="9" rx="4.5" transform="translate(452 5661)" fill="#fff"/>
        <rect id="사각형_658-2" data-name="사각형 658" width="149" height="11" rx="5.5" transform="translate(452 5674)" fill="#fff"/>
        <text id="No.-2" data-name="No." transform="translate(434 5678)" fill="#99999a" font-size="14" font-family="Pretendard-Medium, Pretendard" font-weight="500" letter-spacing="-0.005em"><tspan x="-10.799" y="0">No.</tspan></text>
        <text id="Product_Name-2" data-name="Product Name" transform="translate(504 5684)" fill="#99999a" font-size="14" font-family="Pretendard-Medium, Pretendard" font-weight="500" letter-spacing="-0.005em"><tspan x="-45.098" y="0">Product Name</tspan></text>
      </g>
      <g id="그룹_2065" data-name="그룹 2065" transform="translate(-164 -10)">
        <rect id="사각형_558-2" data-name="사각형 558" width="115" height="21" rx="10.5" transform="translate(501 161)" fill="#fff"/>
        <text id="Logo-2" data-name="Logo" transform="translate(559 177)" fill="#99999a" font-size="14" font-family="Pretendard-Medium, Pretendard" font-weight="500" letter-spacing="-0.005em"><tspan x="-15.816" y="0">Logo</tspan></text>
      </g>
      <g id="그룹_2064" data-name="그룹 2064" transform="translate(-10 -23)">
        <rect id="사각형_559-2" data-name="사각형 559" width="427" height="21" rx="10.5" transform="translate(693 174)" fill="#fff"/>
        <text id="Main_Menu-2" data-name="Main Menu" transform="translate(907 190)" fill="#99999a" font-size="14" font-family="Pretendard-Medium, Pretendard" font-weight="500" letter-spacing="-0.005em"><tspan x="-34.802" y="0">Main Menu</tspan></text>
      </g>
      <g id="그룹_1065-2" data-name="그룹 1065" transform="translate(184 -22)">
        <rect id="사각형_591-2" data-name="사각형 591" width="35" height="20" rx="10" transform="translate(1196 174)" fill="#fff"/>
        <text id="Lang-2" data-name="Lang" transform="translate(1213.565 189)" fill="#99999a" font-size="14" font-family="Pretendard-Medium, Pretendard" font-weight="500" letter-spacing="-0.005em"><tspan x="-15.57" y="0">Lang</tspan></text>
      </g>
      <g id="그룹_1062-2" data-name="그룹 1062" transform="translate(626 109)">
        <rect id="사각형_589-2" data-name="사각형 589" width="185" height="16" rx="8" transform="translate(619 301)" fill="#fff"/>
        <text id="Partners-2" data-name="Partners" transform="translate(711.5 314)" fill="#99999a" font-size="14" font-family="Pretendard-Medium, Pretendard" font-weight="500" letter-spacing="-0.005em"><tspan x="-27.027" y="0">Partners</tspan></text>
      </g>
      <rect id="사각형_574-2" data-name="사각형 574" width="132" height="24" rx="12" transform="translate(900 578)" fill="#bcbcc1"/>
      <rect id="사각형_566-2" data-name="사각형 566" width="132" height="24" rx="12" transform="translate(620 578)" fill="#bcbcc1"/>
      <rect id="사각형_575-2" data-name="사각형 575" width="132" height="24" rx="12" transform="translate(1040 578)" fill="#bcbcc1"/>
      <rect id="사각형_567-2" data-name="사각형 567" width="132" height="24" rx="12" transform="translate(760 578)" fill="#bcbcc1"/>
      <rect id="사각형_576-2" data-name="사각형 576" width="132" height="24" rx="12" transform="translate(1180 578)" fill="#bcbcc1"/>
      <rect id="사각형_565-2" data-name="사각형 565" width="132" height="24" rx="12" transform="translate(480 578)" fill="#bcbcc1"/>
      <text id="Tab_Menu-2" data-name="Tab Menu" transform="translate(546 595)" fill="#7d7d7f" font-size="14" font-family="Pretendard-Medium, Pretendard" font-weight="500" letter-spacing="-0.005em"><tspan x="-31.224" y="0">Tab Menu</tspan></text>
      <text id="Sub_Menu-2" data-name="Sub Menu" transform="translate(437 346)" fill="#7d7d7f" font-size="14" font-family="Pretendard-Medium, Pretendard" font-weight="500" letter-spacing="-0.005em"><tspan x="-31.843" y="0">Sub Menu</tspan></text>
      <text id="Image" transform="translate(896 322)" fill="#7d7d7f" font-size="14" font-family="Pretendard-Medium, Pretendard" font-weight="500" letter-spacing="-0.005em"><tspan x="-19.404" y="0">Image</tspan></text>
      <rect id="사각형_957" data-name="사각형 957" width="145" height="28" rx="14" transform="translate(687 512)" fill="#bcbcc1"/>
      <rect id="사각형_956" data-name="사각형 956" width="259" height="28" rx="14" transform="translate(847 512)" fill="#bcbcc1"/>
      <text id="Search" transform="translate(760 531)" fill="#7d7d7f" font-size="14" font-family="Pretendard-Medium, Pretendard" font-weight="500" letter-spacing="-0.005em"><tspan x="-22.079" y="0">Search</tspan></text>
      <text id="Input" transform="translate(977 531)" fill="#7d7d7f" font-size="14" font-family="Pretendard-Medium, Pretendard" font-weight="500" letter-spacing="-0.005em"><tspan x="-16.15" y="0">Input</tspan></text>
    </g>
    <path id="합치기_1" data-name="합치기 1" d="M-6390,33.869h9.144l13.8,13.864V0h6.254V47.6l13.661-13.731H-6338L-6364,60Z" transform="translate(7324 5932)" fill="url(#linear-gradient)"/>
    <g id="그룹_2080" data-name="그룹 2080" transform="translate(16 207)">
      <g id="그룹_2079" data-name="그룹 2079" transform="translate(-41 -65)">
        <text id="Tablet" transform="translate(819 6672)" fill="#3a3a3b" font-size="20" font-family="Pretendard-SemiBold, Pretendard" font-weight="600" letter-spacing="-0.005em"><tspan x="-28.612" y="0">Tablet</tspan></text>
        <g id="그룹_2076" data-name="그룹 2076" transform="translate(-18036 5391)">
          <rect id="사각형_624" data-name="사각형 624" width="762" height="533" rx="16" transform="translate(18474 1306)" fill="#e6e6e7"/>
          <rect id="사각형_733" data-name="사각형 733" width="710" height="261" rx="10" transform="translate(18500 1359)" fill="#9e9ea4"/>
          <rect id="사각형_747" data-name="사각형 747" width="104" height="13" rx="6.5" transform="translate(18548 1508)" fill="#bcbcc1"/>
          <g id="그룹_1076" data-name="그룹 1076" transform="translate(17670 -3798)">
            <rect id="사각형_563-3" data-name="사각형 563" width="164" height="30" rx="15" transform="translate(878 5260)" fill="#fff"/>
            <text id="Title-3" data-name="Title" transform="translate(960 5280)" fill="#99999a" font-size="14" font-family="Pretendard-Medium, Pretendard" font-weight="500" letter-spacing="-0.005em"><tspan x="-13.904" y="0">Title</tspan></text>
          </g>
          <rect id="사각형_734" data-name="사각형 734" width="185" height="16" rx="8" transform="translate(19000 1583)" fill="#fff"/>
          <rect id="사각형_739" data-name="사각형 739" width="132" height="24" rx="12" transform="translate(18500 1751)" fill="#bcbcc1"/>
          <rect id="사각형_750" data-name="사각형 750" width="132" height="24" rx="12" transform="translate(18780 1751)" fill="#bcbcc1"/>
          <rect id="사각형_748" data-name="사각형 748" width="132" height="24" rx="12" transform="translate(18640 1751)" fill="#bcbcc1"/>
          <rect id="사각형_749" data-name="사각형 749" width="132" height="24" rx="12" transform="translate(18920 1751)" fill="#bcbcc1"/>
          <rect id="사각형_751" data-name="사각형 751" width="132" height="24" rx="12" transform="translate(19060 1751)" fill="#bcbcc1"/>
          <path id="사각형_752" data-name="사각형 752" d="M10,0h0a0,0,0,0,1,0,0V24a0,0,0,0,1,0,0h0A10,10,0,0,1,0,14V10A10,10,0,0,1,10,0Z" transform="translate(19200 1751)" fill="#bcbcc1"/>
          <rect id="사각형_740" data-name="사각형 740" width="35" height="21" rx="10.5" transform="translate(19137 1324)" fill="#fff"/>
          <rect id="사각형_744" data-name="사각형 744" width="19" height="3" rx="1.5" transform="translate(19185 1327)" fill="#fff"/>
          <rect id="사각형_745" data-name="사각형 745" width="19" height="3" rx="1.5" transform="translate(19185 1333)" fill="#fff"/>
          <rect id="사각형_741" data-name="사각형 741" width="19" height="3" rx="1.5" transform="translate(19185 1339)" fill="#fff"/>
          <rect id="사각형_742" data-name="사각형 742" width="21" height="21" rx="10.5" transform="translate(19103 1324)" fill="#bcbcc1"/>
          <rect id="사각형_743" data-name="사각형 743" width="21" height="21" rx="10.5" transform="translate(19078 1324)" fill="#bcbcc1"/>
          <g id="그룹_1077" data-name="그룹 1077" transform="translate(17935 -3846)">
            <rect id="사각형_558-3" data-name="사각형 558" width="115" height="21" rx="10" transform="translate(565 5170)" fill="#fff"/>
            <text id="Logo-3" data-name="Logo" transform="translate(623 5186)" fill="#99999a" font-size="14" font-family="Pretendard-Medium, Pretendard" font-weight="500" letter-spacing="-0.005em"><tspan x="-15.816" y="0">Logo</tspan></text>
          </g>
          <rect id="사각형_738" data-name="사각형 738" width="89" height="28" rx="14" transform="translate(18721 1685)" fill="#bcbcc1"/>
          <rect id="사각형_735" data-name="사각형 735" width="159" height="28" rx="14" transform="translate(18825 1685)" fill="#bcbcc1"/>
          <text id="Search-2" data-name="Search" transform="translate(18766 1704)" fill="#7d7d7f" font-size="14" font-family="Pretendard-Medium, Pretendard" font-weight="500" letter-spacing="-0.005em"><tspan x="-22.079" y="0">Search</tspan></text>
          <text id="Image-2" data-name="Image" transform="translate(18855 1495)" fill="#7d7d7f" font-size="14" font-family="Pretendard-Medium, Pretendard" font-weight="500" letter-spacing="-0.005em"><tspan x="-19.404" y="0">Image</tspan></text>
          <text id="Sub_Menu-3" data-name="Sub Menu" transform="translate(18600 1520)" fill="#7d7d7f" font-size="14" font-family="Pretendard-Medium, Pretendard" font-weight="500" letter-spacing="-0.005em"><tspan x="-31.843" y="0">Sub Menu</tspan></text>
          <text id="Tab_Menu-3" data-name="Tab Menu" transform="translate(18566 1768)" fill="#7d7d7f" font-size="14" font-family="Pretendard-Medium, Pretendard" font-weight="500" letter-spacing="-0.005em"><tspan x="-31.224" y="0">Tab Menu</tspan></text>
          <text id="Input-2" data-name="Input" transform="translate(18905 1704)" fill="#7d7d7f" font-size="14" font-family="Pretendard-Medium, Pretendard" font-weight="500" letter-spacing="-0.005em"><tspan x="-16.15" y="0">Input</tspan></text>
          <text id="Lang-3" data-name="Lang" transform="translate(19155 1340)" fill="#99999a" font-size="14" font-family="Pretendard-Medium, Pretendard" font-weight="500" letter-spacing="-0.005em"><tspan x="-15.57" y="0">Lang</tspan></text>
          <text id="Partners-3" data-name="Partners" transform="translate(19093 1596)" fill="#99999a" font-size="14" font-family="Pretendard-Medium, Pretendard" font-weight="500" letter-spacing="-0.005em"><tspan x="-27.027" y="0">Partners</tspan></text>
          <g id="마스크_그룹_37" data-name="마스크 그룹 37" transform="translate(1004 807)" clip-path="url(#clip-path-3)">
            <g id="그룹_1078" data-name="그룹 1078" transform="translate(0 -3)">
              <rect id="사각형_753" data-name="사각형 753" width="162" height="162" rx="12" transform="translate(17496 998)" fill="#bcbcc1"/>
              <rect id="사각형_757" data-name="사각형 757" width="162" height="162" rx="12" transform="translate(17679 998)" fill="#bcbcc1"/>
              <rect id="사각형_758" data-name="사각형 758" width="162" height="162" rx="12" transform="translate(17861 998)" fill="#bcbcc1"/>
              <rect id="사각형_759" data-name="사각형 759" width="162" height="162" rx="12" transform="translate(18044 998)" fill="#bcbcc1"/>
              <rect id="사각형_756" data-name="사각형 756" width="24" height="24" rx="6" transform="translate(17512 1014)" fill="#fff"/>
              <rect id="사각형_754" data-name="사각형 754" width="72" height="9" rx="4.5" transform="translate(17542 1014)" fill="#fff"/>
              <rect id="사각형_755" data-name="사각형 755" width="103" height="11" rx="5.5" transform="translate(17542 1027)" fill="#fff"/>
              <text id="Product_Name-3" data-name="Product Name" transform="translate(17594 1037)" fill="#99999a" font-size="14" font-family="Pretendard-Medium, Pretendard" font-weight="500" letter-spacing="-0.005em"><tspan x="-45.098" y="0">Product Name</tspan></text>
              <text id="No.-3" data-name="No." transform="translate(17524 1031)" fill="#99999a" font-size="14" font-family="Pretendard-Medium, Pretendard" font-weight="500" letter-spacing="-0.005em"><tspan x="-10.799" y="0">No.</tspan></text>
            </g>
          </g>
          <g id="사각형_787" data-name="사각형 787" transform="translate(18474 1306)" fill="none" stroke="#bcbcc1" stroke-width="4">
            <rect width="762" height="533" rx="16" stroke="none"/>
            <rect x="2" y="2" width="758" height="529" rx="14" fill="none"/>
          </g>
        </g>
      </g>
      <g id="그룹_2078" data-name="그룹 2078" transform="translate(9 -65)">
        <text id="Mob" transform="translate(1356 6672)" fill="#3a3a3b" font-size="20" font-family="Pretendard-SemiBold, Pretendard" font-weight="600" letter-spacing="-0.005em"><tspan x="-20.486" y="0">Mob</tspan></text>
        <g id="그룹_2077" data-name="그룹 2077" transform="translate(-18086 5399)">
          <rect id="사각형_626" data-name="사각형 626" width="252" height="549" rx="16" transform="translate(19316 1298)" fill="#e6e6e7"/>
          <g id="마스크_그룹_38" data-name="마스크 그룹 38" transform="translate(1004 804)" clip-path="url(#clip-path-4)">
            <rect id="사각형_762" data-name="사각형 762" width="226" height="226" rx="12" transform="translate(18325 986)" fill="#bcbcc1"/>
          </g>
          <rect id="사각형_780" data-name="사각형 780" width="132" height="24" rx="12" transform="translate(19329 1739)" fill="#bcbcc1"/>
          <path id="사각형_772" data-name="사각형 772" d="M12,0H86a0,0,0,0,1,0,0V24a0,0,0,0,1,0,0H12A12,12,0,0,1,0,12v0A12,12,0,0,1,12,0Z" transform="translate(19469 1739)" fill="#bcbcc1"/>
          <rect id="사각형_781" data-name="사각형 781" width="35" height="21" rx="10.5" transform="translate(19491 1316)" fill="#fff"/>
          <g id="그룹_1082" data-name="그룹 1082" transform="translate(1004 803)">
            <rect id="사각형_786" data-name="사각형 786" width="19" height="3" rx="1.5" transform="translate(18529 516)" fill="#fff"/>
            <rect id="사각형_785" data-name="사각형 785" width="19" height="3" rx="1.5" transform="translate(18529 522)" fill="#fff"/>
            <rect id="사각형_782" data-name="사각형 782" width="19" height="3" rx="1.5" transform="translate(18529 528)" fill="#fff"/>
          </g>
          <rect id="사각형_783" data-name="사각형 783" width="21" height="21" rx="10.5" transform="translate(19463 1316)" fill="#bcbcc1"/>
          <rect id="사각형_784" data-name="사각형 784" width="21" height="21" rx="10.5" transform="translate(19438 1316)" fill="#bcbcc1"/>
          <g id="그룹_1081" data-name="그룹 1081" transform="translate(1004 801)">
            <rect id="사각형_558-4" data-name="사각형 558" width="67" height="21" rx="10" transform="translate(18325 515)" fill="#fff"/>
            <text id="Logo-4" data-name="Logo" transform="translate(18359 531)" fill="#99999a" font-size="14" font-family="Pretendard-Medium, Pretendard" font-weight="500" letter-spacing="-0.005em"><tspan x="-15.816" y="0">Logo</tspan></text>
          </g>
          <rect id="사각형_777" data-name="사각형 777" width="226" height="28" rx="14" transform="translate(19329 1642)" fill="#bcbcc1"/>
          <rect id="사각형_773" data-name="사각형 773" width="226" height="28" rx="14" transform="translate(19329 1673)" fill="#bcbcc1"/>
          <text id="Search-3" data-name="Search" transform="translate(19442 1661)" fill="#7d7d7f" font-size="14" font-family="Pretendard-Medium, Pretendard" font-weight="500" letter-spacing="-0.005em"><tspan x="-22.079" y="0">Search</tspan></text>
          <text id="Tab_Menu-4" data-name="Tab Menu" transform="translate(19395 1756)" fill="#7d7d7f" font-size="14" font-family="Pretendard-Medium, Pretendard" font-weight="500" letter-spacing="-0.005em"><tspan x="-31.224" y="0">Tab Menu</tspan></text>
          <text id="Input-3" data-name="Input" transform="translate(19442 1692)" fill="#7d7d7f" font-size="14" font-family="Pretendard-Medium, Pretendard" font-weight="500" letter-spacing="-0.005em"><tspan x="-16.15" y="0">Input</tspan></text>
          <text id="Lang-4" data-name="Lang" transform="translate(19509 1332)" fill="#99999a" font-size="14" font-family="Pretendard-Medium, Pretendard" font-weight="500" letter-spacing="-0.005em"><tspan x="-15.57" y="0">Lang</tspan></text>
          <rect id="사각형_766" data-name="사각형 766" width="24" height="24" rx="6" transform="translate(19345 1806)" fill="#fff"/>
          <rect id="사각형_767" data-name="사각형 767" width="72" height="9" rx="4.5" transform="translate(19375 1806)" fill="#fff"/>
          <rect id="사각형_768" data-name="사각형 768" width="103" height="11" rx="5.5" transform="translate(19375 1819)" fill="#fff"/>
          <text id="Product_Name-4" data-name="Product Name" transform="translate(19427 1829)" fill="#99999a" font-size="14" font-family="Pretendard-Medium, Pretendard" font-weight="500" letter-spacing="-0.005em"><tspan x="-45.098" y="0">Product Name</tspan></text>
          <text id="No.-4" data-name="No." transform="translate(19357 1823)" fill="#99999a" font-size="14" font-family="Pretendard-Medium, Pretendard" font-weight="500" letter-spacing="-0.005em"><tspan x="-10.799" y="0">No.</tspan></text>
          <rect id="사각형_775" data-name="사각형 775" width="226" height="261" rx="10" transform="translate(19329 1351)" fill="#9e9ea4"/>
          <text id="Image-3" data-name="Image" transform="translate(19442 1406)" fill="#7d7d7f" font-size="14" font-family="Pretendard-Medium, Pretendard" font-weight="500" letter-spacing="-0.005em"><tspan x="-19.404" y="0">Image</tspan></text>
          <rect id="사각형_779" data-name="사각형 779" width="104" height="13" rx="6.5" transform="translate(19390 1497)" fill="#bcbcc1"/>
          <g id="그룹_1080" data-name="그룹 1080" transform="translate(18482 -3809)">
            <rect id="사각형_563-4" data-name="사각형 563" width="164" height="30" rx="15" transform="translate(878 5260)" fill="#fff"/>
            <text id="Title-4" data-name="Title" transform="translate(960 5280)" fill="#99999a" font-size="14" font-family="Pretendard-Medium, Pretendard" font-weight="500" letter-spacing="-0.005em"><tspan x="-13.904" y="0">Title</tspan></text>
          </g>
          <rect id="사각형_776" data-name="사각형 776" width="185" height="16" rx="8" transform="translate(19350 1569)" fill="#fff"/>
          <text id="Sub_Menu-4" data-name="Sub Menu" transform="translate(19442 1509)" fill="#7d7d7f" font-size="14" font-family="Pretendard-Medium, Pretendard" font-weight="500" letter-spacing="-0.005em"><tspan x="-31.843" y="0">Sub Menu</tspan></text>
          <text id="Partners-4" data-name="Partners" transform="translate(19442 1582)" fill="#99999a" font-size="14" font-family="Pretendard-Medium, Pretendard" font-weight="500" letter-spacing="-0.005em"><tspan x="-27.027" y="0">Partners</tspan></text>
          <g id="사각형_793" data-name="사각형 793" transform="translate(19316 1298)" fill="none" stroke="#bcbcc1" stroke-width="4">
            <rect width="252" height="549" rx="16" stroke="none"/>
            <rect x="2" y="2" width="248" height="545" rx="14" fill="none"/>
          </g>
        </g>
      </g>
    </g>
  </g>
</svg>
