<?xml version="1.0" encoding="utf-8"?>
<!-- Generator: Adobe Illustrator 28.1.0, SVG Export Plug-In . SVG Version: 6.00 Build 0)  -->
<svg version="1.1" id="레이어_1" xmlns="http://www.w3.org/2000/svg" xmlns:xlink="http://www.w3.org/1999/xlink" x="0px"
	 y="0px" viewBox="0 0 73.7 11" style="enable-background:new 0 0 73.7 11;" xml:space="preserve">
<style type="text/css">
	.st0{fill:#99999A;}
	.st1{enable-background:new    ;}
	.st2{fill:#FFFFFF;}
</style>
<g id="그룹_3180-2" transform="translate(6463.139 -69.5)">
	<rect id="사각형_1542" x="-6463.1" y="70.5" class="st0" width="73.7" height="9"/>
	<g class="st1">
		<path class="st2" d="M-6457.9,72.8c-0.3,0-0.6,0.1-0.8,0.2c-0.3,0.1-0.5,0.2-0.7,0.4c-0.2,0.2-0.4,0.4-0.5,0.7s-0.2,0.5-0.2,0.9
			c0,0.3,0.1,0.6,0.2,0.8c0.1,0.3,0.3,0.5,0.5,0.7c0.2,0.2,0.4,0.3,0.7,0.4c0.3,0.1,0.5,0.2,0.8,0.2c0.3,0,0.6-0.1,0.9-0.3
			c0.3-0.2,0.5-0.4,0.7-0.7l0.6,0.5c-0.3,0.4-0.6,0.7-1,0.9s-0.9,0.3-1.3,0.3c-0.4,0-0.8-0.1-1.1-0.2c-0.4-0.1-0.7-0.3-0.9-0.6
			c-0.3-0.3-0.5-0.6-0.6-0.9c-0.2-0.3-0.2-0.7-0.2-1.1s0.1-0.8,0.2-1.1c0.2-0.3,0.4-0.6,0.6-0.9c0.3-0.3,0.6-0.5,0.9-0.6
			c0.4-0.1,0.7-0.2,1.1-0.2c0.4,0,0.9,0.1,1.3,0.3c0.4,0.2,0.8,0.5,1.1,0.9l-0.6,0.5c-0.1-0.1-0.2-0.2-0.3-0.4
			c-0.1-0.1-0.3-0.2-0.4-0.3s-0.3-0.2-0.5-0.2C-6457.6,72.8-6457.7,72.8-6457.9,72.8z"/>
		<path class="st2" d="M-6455.5,74.9c0-0.4,0.1-0.8,0.2-1.2c0.2-0.4,0.4-0.7,0.6-0.9c0.3-0.2,0.6-0.4,0.9-0.6s0.7-0.2,1.1-0.2
			s0.7,0.1,1.1,0.2c0.3,0.1,0.7,0.3,0.9,0.6c0.3,0.2,0.5,0.6,0.6,0.9c0.2,0.4,0.2,0.8,0.2,1.2c0,0.4-0.1,0.8-0.2,1.2
			c-0.2,0.3-0.4,0.6-0.6,0.9s-0.6,0.4-0.9,0.6c-0.3,0.1-0.7,0.2-1.1,0.2s-0.7-0.1-1.1-0.2s-0.7-0.3-0.9-0.6
			c-0.3-0.2-0.5-0.5-0.6-0.9C-6455.5,75.7-6455.5,75.3-6455.5,74.9z M-6452.6,77c0.3,0,0.5-0.1,0.8-0.2c0.2-0.1,0.5-0.2,0.6-0.4
			c0.2-0.2,0.3-0.4,0.4-0.7s0.2-0.5,0.2-0.9c0-0.3-0.1-0.6-0.2-0.9c-0.1-0.3-0.3-0.5-0.5-0.7c-0.2-0.2-0.4-0.3-0.6-0.4
			c-0.2-0.1-0.5-0.2-0.7-0.2c-0.2,0-0.5,0.1-0.7,0.2c-0.2,0.1-0.5,0.2-0.6,0.4c-0.2,0.2-0.3,0.4-0.5,0.7s-0.2,0.5-0.2,0.9
			c0,0.3,0.1,0.6,0.2,0.9s0.3,0.5,0.4,0.7c0.2,0.2,0.4,0.3,0.6,0.4C-6453.2,76.9-6452.9,77-6452.6,77z"/>
		<path class="st2" d="M-6444.9,77.4h-0.9v-3.3c0-0.2,0-0.3-0.1-0.5s-0.1-0.3-0.2-0.4s-0.2-0.2-0.3-0.3s-0.3-0.1-0.5-0.1
			s-0.3,0-0.5,0.1c-0.1,0.1-0.3,0.2-0.4,0.3c-0.1,0.1-0.2,0.3-0.3,0.4c-0.1,0.1-0.1,0.3-0.1,0.4v3.3h-0.9v-5.2h0.8l0,0.5
			c0.2-0.2,0.4-0.4,0.7-0.5s0.6-0.2,1-0.2c0.3,0,0.5,0.1,0.8,0.2c0.2,0.1,0.4,0.4,0.6,0.6c0.4-0.6,1-0.8,1.7-0.8
			c0.2,0,0.5,0,0.7,0.1c0.2,0.1,0.4,0.2,0.6,0.4c0.2,0.2,0.3,0.4,0.4,0.6s0.1,0.5,0.1,0.8v3.3h-0.9v-3.3c0-0.1,0-0.3-0.1-0.5
			s-0.1-0.3-0.2-0.4c-0.1-0.1-0.2-0.2-0.4-0.3c-0.1-0.1-0.3-0.1-0.5-0.1c-0.1,0-0.3,0-0.4,0.1s-0.3,0.2-0.4,0.3
			c-0.1,0.1-0.2,0.2-0.3,0.4c-0.1,0.1-0.1,0.3-0.1,0.5V77.4z"/>
		<path class="st2" d="M-6436.4,77.4h-0.9v-3.3c0-0.2,0-0.3-0.1-0.5s-0.1-0.3-0.2-0.4s-0.2-0.2-0.3-0.3s-0.3-0.1-0.5-0.1
			s-0.3,0-0.5,0.1c-0.1,0.1-0.3,0.2-0.4,0.3c-0.1,0.1-0.2,0.3-0.3,0.4c-0.1,0.1-0.1,0.3-0.1,0.4v3.3h-0.9v-5.2h0.8l0,0.5
			c0.2-0.2,0.4-0.4,0.7-0.5s0.6-0.2,1-0.2c0.3,0,0.5,0.1,0.8,0.2c0.2,0.1,0.4,0.4,0.6,0.6c0.4-0.6,1-0.8,1.7-0.8
			c0.2,0,0.5,0,0.7,0.1c0.2,0.1,0.4,0.2,0.6,0.4c0.2,0.2,0.3,0.4,0.4,0.6s0.1,0.5,0.1,0.8v3.3h-0.9v-3.3c0-0.1,0-0.3-0.1-0.5
			s-0.1-0.3-0.2-0.4c-0.1-0.1-0.2-0.2-0.4-0.3c-0.1-0.1-0.3-0.1-0.5-0.1c-0.1,0-0.3,0-0.4,0.1s-0.3,0.2-0.4,0.3
			c-0.1,0.1-0.2,0.2-0.3,0.4c-0.1,0.1-0.1,0.3-0.1,0.5V77.4z"/>
		<path class="st2" d="M-6431.3,70.2v1h-0.9v-1H-6431.3z M-6431.3,72.1v5.3h-0.9v-5.3H-6431.3z"/>
		<path class="st2" d="M-6429.3,73c0.2-0.3,0.5-0.5,0.9-0.7s0.7-0.2,1.1-0.2c0.3,0,0.7,0.1,0.9,0.2c0.3,0.1,0.5,0.3,0.7,0.5
			s0.4,0.4,0.5,0.7c0.1,0.3,0.2,0.6,0.2,0.9v3.1h-0.9v-2.9c0-1.2-0.5-1.7-1.6-1.7c-0.2,0-0.4,0-0.6,0.1c-0.2,0.1-0.4,0.2-0.5,0.3
			s-0.3,0.3-0.4,0.5c-0.1,0.2-0.2,0.4-0.2,0.7v3h-0.9v-5.2h0.8L-6429.3,73z"/>
		<path class="st2" d="M-6421.8,72.1c0.5,0,0.9,0.1,1.3,0.3c0.4,0.2,0.7,0.4,0.9,0.8l0.1-0.8h0.8v5c0,0.4-0.1,0.8-0.2,1.1
			s-0.3,0.6-0.5,0.8c-0.2,0.2-0.5,0.4-0.8,0.5s-0.7,0.2-1,0.2c-0.4,0-0.7,0-1-0.1c-0.3-0.1-0.6-0.2-0.9-0.4s-0.5-0.4-0.6-0.6
			s-0.3-0.6-0.3-0.9h0.9c0,0.2,0.1,0.4,0.2,0.5s0.2,0.3,0.4,0.4c0.1,0.1,0.3,0.2,0.5,0.3c0.2,0.1,0.4,0.1,0.7,0.1
			c0.3,0,0.5,0,0.8-0.1c0.2-0.1,0.4-0.2,0.6-0.4s0.3-0.4,0.4-0.6c0.1-0.2,0.1-0.5,0.1-0.9v-0.9c-0.2,0.3-0.5,0.6-0.9,0.8
			c-0.4,0.2-0.8,0.3-1.3,0.3c-0.4,0-0.7-0.1-1-0.2c-0.3-0.1-0.6-0.3-0.8-0.6c-0.2-0.2-0.4-0.5-0.6-0.8s-0.2-0.7-0.2-1
			c0-0.4,0.1-0.7,0.2-1.1c0.1-0.3,0.3-0.6,0.6-0.9c0.2-0.2,0.5-0.4,0.8-0.6C-6422.5,72.2-6422.1,72.1-6421.8,72.1z M-6421.6,76.7
			c0.3,0,0.6,0,0.8-0.1c0.2-0.1,0.4-0.2,0.6-0.4c0.2-0.2,0.3-0.4,0.4-0.6c0.1-0.2,0.1-0.5,0.1-0.8c0-0.3,0-0.6-0.1-0.8
			c-0.1-0.2-0.2-0.4-0.4-0.6s-0.4-0.3-0.6-0.4c-0.2-0.1-0.5-0.1-0.8-0.1c-0.3,0-0.5,0-0.8,0.1c-0.2,0.1-0.4,0.2-0.6,0.4
			s-0.3,0.4-0.4,0.6c-0.1,0.2-0.1,0.5-0.1,0.8c0,0.3,0,0.5,0.1,0.8c0.1,0.2,0.2,0.4,0.4,0.6c0.2,0.2,0.4,0.3,0.6,0.4
			C-6422.1,76.7-6421.8,76.7-6421.6,76.7z"/>
		<path class="st2" d="M-6412.2,73.3c-0.2-0.1-0.4-0.3-0.7-0.4c-0.3-0.1-0.5-0.1-0.8-0.1c-0.2,0-0.3,0-0.5,0c-0.1,0-0.3,0.1-0.4,0.1
			c-0.1,0.1-0.2,0.1-0.3,0.2c-0.1,0.1-0.1,0.2-0.1,0.3c0,0.2,0.1,0.4,0.3,0.5s0.5,0.2,0.9,0.3c0.7,0.2,1.2,0.4,1.6,0.7
			c0.3,0.3,0.5,0.7,0.5,1.1c0,0.5-0.2,0.9-0.6,1.2s-0.9,0.4-1.6,0.4c-0.4,0-0.8-0.1-1.1-0.2c-0.4-0.1-0.7-0.3-1-0.5l0.4-0.7
			c0.1,0.1,0.2,0.2,0.3,0.2c0.1,0.1,0.3,0.1,0.4,0.2c0.1,0.1,0.3,0.1,0.4,0.1s0.3,0.1,0.5,0.1c0.2,0,0.3,0,0.5,0
			c0.2,0,0.3-0.1,0.4-0.1c0.1-0.1,0.2-0.1,0.3-0.2c0.1-0.1,0.1-0.2,0.1-0.4c0-0.1,0-0.3-0.1-0.4c-0.1-0.1-0.2-0.2-0.3-0.3
			c-0.1-0.1-0.2-0.1-0.4-0.2c-0.2-0.1-0.3-0.1-0.5-0.2c-0.3-0.1-0.6-0.2-0.8-0.3c-0.2-0.1-0.5-0.2-0.6-0.3s-0.3-0.3-0.4-0.4
			c-0.1-0.2-0.1-0.4-0.1-0.6c0-0.2,0-0.5,0.1-0.6s0.2-0.3,0.4-0.5c0.2-0.1,0.4-0.2,0.6-0.3c0.2-0.1,0.5-0.1,0.8-0.1
			c0.4,0,0.8,0.1,1.1,0.2c0.3,0.1,0.6,0.2,0.8,0.4L-6412.2,73.3z"/>
		<path class="st2" d="M-6411.2,74.9c0-0.4,0.1-0.8,0.2-1.2c0.2-0.4,0.4-0.7,0.6-0.9c0.3-0.2,0.6-0.4,0.9-0.6s0.7-0.2,1.1-0.2
			s0.7,0.1,1.1,0.2c0.3,0.1,0.7,0.3,0.9,0.6c0.3,0.2,0.5,0.6,0.6,0.9c0.2,0.4,0.2,0.8,0.2,1.2c0,0.4-0.1,0.8-0.2,1.2
			c-0.2,0.3-0.4,0.6-0.6,0.9s-0.6,0.4-0.9,0.6c-0.3,0.1-0.7,0.2-1.1,0.2s-0.7-0.1-1.1-0.2s-0.7-0.3-0.9-0.6
			c-0.3-0.2-0.5-0.5-0.6-0.9C-6411.1,75.7-6411.2,75.3-6411.2,74.9z M-6408.3,77c0.3,0,0.5-0.1,0.8-0.2c0.2-0.1,0.5-0.2,0.6-0.4
			c0.2-0.2,0.3-0.4,0.4-0.7s0.2-0.5,0.2-0.9c0-0.3-0.1-0.6-0.2-0.9c-0.1-0.3-0.3-0.5-0.5-0.7c-0.2-0.2-0.4-0.3-0.6-0.4
			c-0.2-0.1-0.5-0.2-0.7-0.2c-0.2,0-0.5,0.1-0.7,0.2c-0.2,0.1-0.5,0.2-0.6,0.4c-0.2,0.2-0.3,0.4-0.5,0.7s-0.2,0.5-0.2,0.9
			c0,0.3,0.1,0.6,0.2,0.9s0.3,0.5,0.4,0.7c0.2,0.2,0.4,0.3,0.6,0.4C-6408.8,76.9-6408.6,77-6408.3,77z"/>
		<path class="st2" d="M-6404.9,74.9c0-0.4,0.1-0.8,0.2-1.2c0.2-0.4,0.4-0.7,0.6-0.9c0.3-0.2,0.6-0.4,0.9-0.6s0.7-0.2,1.1-0.2
			s0.7,0.1,1.1,0.2c0.3,0.1,0.7,0.3,0.9,0.6c0.3,0.2,0.5,0.6,0.6,0.9c0.2,0.4,0.2,0.8,0.2,1.2c0,0.4-0.1,0.8-0.2,1.2
			c-0.2,0.3-0.4,0.6-0.6,0.9s-0.6,0.4-0.9,0.6c-0.3,0.1-0.7,0.2-1.1,0.2s-0.7-0.1-1.1-0.2s-0.7-0.3-0.9-0.6
			c-0.3-0.2-0.5-0.5-0.6-0.9C-6404.8,75.7-6404.9,75.3-6404.9,74.9z M-6402,77c0.3,0,0.5-0.1,0.8-0.2c0.2-0.1,0.5-0.2,0.6-0.4
			c0.2-0.2,0.3-0.4,0.4-0.7s0.2-0.5,0.2-0.9c0-0.3-0.1-0.6-0.2-0.9c-0.1-0.3-0.3-0.5-0.5-0.7c-0.2-0.2-0.4-0.3-0.6-0.4
			c-0.2-0.1-0.5-0.2-0.7-0.2c-0.2,0-0.5,0.1-0.7,0.2c-0.2,0.1-0.5,0.2-0.6,0.4c-0.2,0.2-0.3,0.4-0.5,0.7s-0.2,0.5-0.2,0.9
			c0,0.3,0.1,0.6,0.2,0.9s0.3,0.5,0.4,0.7c0.2,0.2,0.4,0.3,0.6,0.4C-6402.5,76.9-6402.2,77-6402,77z"/>
		<path class="st2" d="M-6397.5,73c0.2-0.3,0.5-0.5,0.9-0.7s0.7-0.2,1.1-0.2c0.3,0,0.7,0.1,0.9,0.2c0.3,0.1,0.5,0.3,0.7,0.5
			s0.4,0.4,0.5,0.7c0.1,0.3,0.2,0.6,0.2,0.9v3.1h-0.9v-2.9c0-1.2-0.5-1.7-1.6-1.7c-0.2,0-0.4,0-0.6,0.1c-0.2,0.1-0.4,0.2-0.5,0.3
			s-0.3,0.3-0.4,0.5c-0.1,0.2-0.2,0.4-0.2,0.7v3h-0.9v-5.2h0.8L-6397.5,73z"/>
	</g>
</g>
</svg>
