<?xml version="1.0" encoding="utf-8"?>
<!-- Generator: Adobe Illustrator 28.1.0, SVG Export Plug-In . SVG Version: 6.00 Build 0)  -->
<svg version="1.1" id="레이어_1" xmlns="http://www.w3.org/2000/svg" xmlns:xlink="http://www.w3.org/1999/xlink" x="0px"
	 y="0px" viewBox="0 0 73.7 11" style="enable-background:new 0 0 73.7 11;" xml:space="preserve">
<style type="text/css">
	.st0{fill:#003DFF;}
	.st1{enable-background:new    ;}
	.st2{fill:#FFFFFF;}
</style>
<g>
	<rect id="사각형_1542" y="1" class="st0" width="73.7" height="9"/>
	<g class="st1">
		<path class="st2" d="M5.2,3.3C5,3.3,4.7,3.3,4.4,3.4C4.2,3.5,3.9,3.7,3.7,3.8C3.6,4,3.4,4.3,3.3,4.5S3.1,5.1,3.1,5.4
			c0,0.3,0.1,0.6,0.2,0.8c0.1,0.3,0.3,0.5,0.5,0.7c0.2,0.2,0.4,0.3,0.7,0.4c0.3,0.1,0.5,0.2,0.8,0.2c0.3,0,0.6-0.1,0.9-0.3
			s0.5-0.4,0.7-0.7L7.5,7c-0.3,0.4-0.6,0.7-1,0.9C6.1,8.1,5.6,8.2,5.1,8.2C4.7,8.2,4.3,8.1,4,8C3.6,7.8,3.3,7.6,3,7.4
			C2.8,7.1,2.6,6.8,2.4,6.5C2.3,6.1,2.2,5.8,2.2,5.4s0.1-0.8,0.2-1.1c0.2-0.3,0.4-0.6,0.6-0.9C3.3,3.1,3.6,2.9,4,2.7
			c0.4-0.1,0.7-0.2,1.1-0.2c0.4,0,0.9,0.1,1.3,0.3C6.9,3,7.2,3.3,7.5,3.7L6.9,4.2C6.8,4.1,6.7,4,6.6,3.9C6.4,3.8,6.3,3.7,6.2,3.6
			C6,3.5,5.9,3.4,5.7,3.3C5.6,3.3,5.4,3.3,5.2,3.3z"/>
		<path class="st2" d="M7.6,5.4c0-0.4,0.1-0.8,0.2-1.2C8,3.8,8.2,3.5,8.5,3.3C8.7,3,9.1,2.8,9.4,2.7c0.3-0.1,0.7-0.2,1.1-0.2
			s0.7,0.1,1.1,0.2s0.7,0.3,0.9,0.6c0.3,0.2,0.5,0.6,0.6,0.9c0.2,0.4,0.2,0.8,0.2,1.2c0,0.4-0.1,0.8-0.2,1.2
			c-0.2,0.3-0.4,0.6-0.6,0.9c-0.3,0.2-0.6,0.4-0.9,0.6c-0.3,0.1-0.7,0.2-1.1,0.2S9.7,8.1,9.4,8C9.1,7.9,8.7,7.7,8.5,7.5
			S8,6.9,7.8,6.6C7.7,6.2,7.6,5.8,7.6,5.4z M10.5,7.5c0.3,0,0.5-0.1,0.8-0.2c0.2-0.1,0.5-0.2,0.6-0.4c0.2-0.2,0.3-0.4,0.4-0.7
			c0.1-0.3,0.2-0.5,0.2-0.9c0-0.3-0.1-0.6-0.2-0.9C12.2,4.2,12,4,11.9,3.8c-0.2-0.2-0.4-0.3-0.6-0.4c-0.2-0.1-0.5-0.2-0.7-0.2
			c-0.2,0-0.5,0.1-0.7,0.2C9.5,3.5,9.3,3.7,9.1,3.8C8.9,4,8.8,4.3,8.7,4.5S8.5,5.1,8.5,5.4c0,0.3,0.1,0.6,0.2,0.9
			c0.1,0.3,0.3,0.5,0.4,0.7c0.2,0.2,0.4,0.3,0.6,0.4C10,7.4,10.2,7.5,10.5,7.5z"/>
		<path class="st2" d="M18.3,7.9h-0.9V4.7c0-0.2,0-0.3-0.1-0.5s-0.1-0.3-0.2-0.4s-0.2-0.2-0.3-0.3c-0.1-0.1-0.3-0.1-0.5-0.1
			c-0.2,0-0.3,0-0.5,0.1s-0.3,0.2-0.4,0.3c-0.1,0.1-0.2,0.3-0.3,0.4C15.1,4.4,15,4.5,15,4.6v3.3h-0.9V2.8h0.8l0,0.5
			c0.2-0.2,0.4-0.4,0.7-0.5c0.3-0.1,0.6-0.2,1-0.2c0.3,0,0.5,0.1,0.8,0.2C17.7,3,17.9,3.2,18,3.4c0.4-0.6,1-0.8,1.7-0.8
			c0.2,0,0.5,0,0.7,0.1C20.6,2.9,20.8,3,21,3.2c0.2,0.2,0.3,0.4,0.4,0.6c0.1,0.2,0.1,0.5,0.1,0.8v3.3h-0.9V4.7c0-0.1,0-0.3-0.1-0.5
			s-0.1-0.3-0.2-0.4c-0.1-0.1-0.2-0.2-0.4-0.3s-0.3-0.1-0.5-0.1c-0.1,0-0.3,0-0.4,0.1c-0.1,0.1-0.3,0.2-0.4,0.3
			c-0.1,0.1-0.2,0.2-0.3,0.4c-0.1,0.1-0.1,0.3-0.1,0.5V7.9z"/>
		<path class="st2" d="M26.7,7.9h-0.9V4.7c0-0.2,0-0.3-0.1-0.5s-0.1-0.3-0.2-0.4s-0.2-0.2-0.3-0.3c-0.1-0.1-0.3-0.1-0.5-0.1
			c-0.2,0-0.3,0-0.5,0.1S24,3.7,23.9,3.8c-0.1,0.1-0.2,0.3-0.3,0.4c-0.1,0.1-0.1,0.3-0.1,0.4v3.3h-0.9V2.8h0.8l0,0.5
			c0.2-0.2,0.4-0.4,0.7-0.5c0.3-0.1,0.6-0.2,1-0.2c0.3,0,0.5,0.1,0.8,0.2c0.2,0.1,0.4,0.4,0.6,0.6c0.4-0.6,1-0.8,1.7-0.8
			c0.2,0,0.5,0,0.7,0.1c0.2,0.1,0.4,0.2,0.6,0.4c0.2,0.2,0.3,0.4,0.4,0.6C29.9,4.1,30,4.3,30,4.6v3.3h-0.9V4.7c0-0.1,0-0.3-0.1-0.5
			s-0.1-0.3-0.2-0.4c-0.1-0.1-0.2-0.2-0.4-0.3s-0.3-0.1-0.5-0.1c-0.1,0-0.3,0-0.4,0.1c-0.1,0.1-0.3,0.2-0.4,0.3
			c-0.1,0.1-0.2,0.2-0.3,0.4c-0.1,0.1-0.1,0.3-0.1,0.5V7.9z"/>
		<path class="st2" d="M31.9,0.7v1H31v-1H31.9z M31.9,2.6v5.3H31V2.6H31.9z"/>
		<path class="st2" d="M33.8,3.5c0.2-0.3,0.5-0.5,0.9-0.7s0.7-0.2,1.1-0.2c0.3,0,0.7,0.1,0.9,0.2C37,2.9,37.2,3,37.4,3.2
			c0.2,0.2,0.4,0.4,0.5,0.7C38,4.2,38,4.5,38,4.8v3.1h-0.9V5.1c0-1.2-0.5-1.7-1.6-1.7c-0.2,0-0.4,0-0.6,0.1
			c-0.2,0.1-0.4,0.2-0.5,0.3S34.1,4,34,4.2c-0.1,0.2-0.2,0.4-0.2,0.7v3H33V2.8h0.8L33.8,3.5z"/>
		<path class="st2" d="M41.3,2.6c0.5,0,0.9,0.1,1.3,0.3c0.4,0.2,0.7,0.4,0.9,0.8l0.1-0.8h0.8v5c0,0.4-0.1,0.8-0.2,1.1
			S44,9.5,43.7,9.8c-0.2,0.2-0.5,0.4-0.8,0.5c-0.3,0.1-0.7,0.2-1,0.2c-0.4,0-0.7,0-1-0.1c-0.3-0.1-0.6-0.2-0.9-0.4s-0.5-0.4-0.6-0.6
			s-0.3-0.6-0.3-0.9H40C40,8.6,40,8.8,40.1,9c0.1,0.2,0.2,0.3,0.4,0.4c0.1,0.1,0.3,0.2,0.5,0.3c0.2,0.1,0.4,0.1,0.7,0.1
			c0.3,0,0.5,0,0.8-0.1c0.2-0.1,0.4-0.2,0.6-0.4c0.2-0.2,0.3-0.4,0.4-0.6c0.1-0.2,0.1-0.5,0.1-0.9V6.9c-0.2,0.3-0.5,0.6-0.9,0.8
			c-0.4,0.2-0.8,0.3-1.3,0.3c-0.4,0-0.7-0.1-1-0.2c-0.3-0.1-0.6-0.3-0.8-0.6c-0.2-0.2-0.4-0.5-0.6-0.8c-0.1-0.3-0.2-0.7-0.2-1
			c0-0.4,0.1-0.7,0.2-1.1c0.1-0.3,0.3-0.6,0.6-0.9c0.2-0.2,0.5-0.4,0.8-0.6C40.7,2.7,41,2.6,41.3,2.6z M41.6,7.2
			c0.3,0,0.6,0,0.8-0.1C42.6,7,42.8,6.8,43,6.7c0.2-0.2,0.3-0.4,0.4-0.6c0.1-0.2,0.1-0.5,0.1-0.8c0-0.3,0-0.6-0.1-0.8
			c-0.1-0.2-0.2-0.4-0.4-0.6c-0.2-0.2-0.4-0.3-0.6-0.4c-0.2-0.1-0.5-0.1-0.8-0.1c-0.3,0-0.5,0-0.8,0.1c-0.2,0.1-0.4,0.2-0.6,0.4
			c-0.2,0.2-0.3,0.4-0.4,0.6c-0.1,0.2-0.1,0.5-0.1,0.8c0,0.3,0,0.5,0.1,0.8c0.1,0.2,0.2,0.4,0.4,0.6c0.2,0.2,0.4,0.3,0.6,0.4
			C41,7.2,41.3,7.2,41.6,7.2z"/>
		<path class="st2" d="M51,3.8c-0.2-0.1-0.4-0.3-0.7-0.4c-0.3-0.1-0.5-0.1-0.8-0.1c-0.2,0-0.3,0-0.5,0c-0.1,0-0.3,0.1-0.4,0.1
			c-0.1,0.1-0.2,0.1-0.3,0.2c-0.1,0.1-0.1,0.2-0.1,0.3c0,0.2,0.1,0.4,0.3,0.5s0.5,0.2,0.9,0.3C50.1,5,50.6,5.2,51,5.5
			c0.3,0.3,0.5,0.7,0.5,1.1c0,0.5-0.2,0.9-0.6,1.2c-0.4,0.3-0.9,0.4-1.6,0.4c-0.4,0-0.8-0.1-1.1-0.2c-0.4-0.1-0.7-0.3-1-0.5l0.4-0.7
			c0.1,0.1,0.2,0.2,0.3,0.2c0.1,0.1,0.3,0.1,0.4,0.2c0.1,0.1,0.3,0.1,0.4,0.1c0.2,0,0.3,0.1,0.5,0.1c0.2,0,0.3,0,0.5,0
			c0.2,0,0.3-0.1,0.4-0.1c0.1-0.1,0.2-0.1,0.3-0.2c0.1-0.1,0.1-0.2,0.1-0.4c0-0.1,0-0.3-0.1-0.4c-0.1-0.1-0.2-0.2-0.3-0.3
			c-0.1-0.1-0.2-0.1-0.4-0.2c-0.2-0.1-0.3-0.1-0.5-0.2c-0.3-0.1-0.6-0.2-0.8-0.3c-0.2-0.1-0.5-0.2-0.6-0.3s-0.3-0.3-0.4-0.4
			c-0.1-0.2-0.1-0.4-0.1-0.6c0-0.2,0-0.5,0.1-0.6c0.1-0.2,0.2-0.3,0.4-0.5s0.4-0.2,0.6-0.3c0.2-0.1,0.5-0.1,0.8-0.1
			c0.4,0,0.8,0.1,1.1,0.2c0.3,0.1,0.6,0.2,0.8,0.4L51,3.8z"/>
		<path class="st2" d="M51.9,5.4c0-0.4,0.1-0.8,0.2-1.2c0.2-0.4,0.4-0.7,0.6-0.9c0.3-0.2,0.6-0.4,0.9-0.6c0.3-0.1,0.7-0.2,1.1-0.2
			s0.7,0.1,1.1,0.2c0.3,0.1,0.7,0.3,0.9,0.6c0.3,0.2,0.5,0.6,0.6,0.9c0.2,0.4,0.2,0.8,0.2,1.2c0,0.4-0.1,0.8-0.2,1.2
			c-0.2,0.3-0.4,0.6-0.6,0.9c-0.3,0.2-0.6,0.4-0.9,0.6c-0.3,0.1-0.7,0.2-1.1,0.2S54.1,8.1,53.7,8c-0.3-0.1-0.7-0.3-0.9-0.6
			c-0.3-0.2-0.5-0.5-0.6-0.9C52,6.2,51.9,5.8,51.9,5.4z M54.8,7.5c0.3,0,0.5-0.1,0.8-0.2c0.2-0.1,0.5-0.2,0.6-0.4
			c0.2-0.2,0.3-0.4,0.4-0.7c0.1-0.3,0.2-0.5,0.2-0.9c0-0.3-0.1-0.6-0.2-0.9c-0.1-0.3-0.3-0.5-0.5-0.7c-0.2-0.2-0.4-0.3-0.6-0.4
			c-0.2-0.1-0.5-0.2-0.7-0.2c-0.2,0-0.5,0.1-0.7,0.2c-0.2,0.1-0.5,0.2-0.6,0.4C53.3,4,53.1,4.3,53,4.5s-0.2,0.5-0.2,0.9
			c0,0.3,0.1,0.6,0.2,0.9c0.1,0.3,0.3,0.5,0.4,0.7c0.2,0.2,0.4,0.3,0.6,0.4C54.3,7.4,54.6,7.5,54.8,7.5z"/>
		<path class="st2" d="M58.3,5.4c0-0.4,0.1-0.8,0.2-1.2c0.2-0.4,0.4-0.7,0.6-0.9c0.3-0.2,0.6-0.4,0.9-0.6c0.3-0.1,0.7-0.2,1.1-0.2
			s0.7,0.1,1.1,0.2c0.3,0.1,0.7,0.3,0.9,0.6c0.3,0.2,0.5,0.6,0.6,0.9c0.2,0.4,0.2,0.8,0.2,1.2c0,0.4-0.1,0.8-0.2,1.2
			c-0.2,0.3-0.4,0.6-0.6,0.9c-0.3,0.2-0.6,0.4-0.9,0.6c-0.3,0.1-0.7,0.2-1.1,0.2S60.4,8.1,60.1,8c-0.3-0.1-0.7-0.3-0.9-0.6
			c-0.3-0.2-0.5-0.5-0.6-0.9C58.4,6.2,58.3,5.8,58.3,5.4z M61.2,7.5c0.3,0,0.5-0.1,0.8-0.2c0.2-0.1,0.5-0.2,0.6-0.4
			c0.2-0.2,0.3-0.4,0.4-0.7c0.1-0.3,0.2-0.5,0.2-0.9c0-0.3-0.1-0.6-0.2-0.9c-0.1-0.3-0.3-0.5-0.5-0.7c-0.2-0.2-0.4-0.3-0.6-0.4
			c-0.2-0.1-0.5-0.2-0.7-0.2c-0.2,0-0.5,0.1-0.7,0.2c-0.2,0.1-0.5,0.2-0.6,0.4c-0.2,0.2-0.3,0.4-0.5,0.7s-0.2,0.5-0.2,0.9
			c0,0.3,0.1,0.6,0.2,0.9c0.1,0.3,0.3,0.5,0.4,0.7c0.2,0.2,0.4,0.3,0.6,0.4C60.7,7.4,60.9,7.5,61.2,7.5z"/>
		<path class="st2" d="M65.7,3.5c0.2-0.3,0.5-0.5,0.9-0.7s0.7-0.2,1.1-0.2c0.3,0,0.7,0.1,0.9,0.2c0.3,0.1,0.5,0.3,0.7,0.5
			c0.2,0.2,0.4,0.4,0.5,0.7c0.1,0.3,0.2,0.6,0.2,0.9v3.1H69V5.1c0-1.2-0.5-1.7-1.6-1.7c-0.2,0-0.4,0-0.6,0.1
			c-0.2,0.1-0.4,0.2-0.5,0.3S66,4,65.9,4.2c-0.1,0.2-0.2,0.4-0.2,0.7v3h-0.9V2.8h0.8L65.7,3.5z"/>
	</g>
</g>
</svg>
