<?xml version="1.0" encoding="UTF-8"?>
<svg id="_레이어_1" data-name="레이어 1" xmlns="http://www.w3.org/2000/svg" viewBox="0 0 222.47 64.22">
  <defs>
    <style>
      .cls-1 {
        fill: #231815;
        stroke-width: 0px;
      }
    </style>
  </defs>
  <g>
    <path class="cls-1" d="M0,0h10.43v17.03h.26c1.27-2.99,4.13-6.16,9.53-6.23,7.12.07,13.48,5.53,13.48,17.42s-6.04,17.29-13.48,17.29c-5.22,0-8.2-2.92-9.53-5.97h-.39v5.47H0V0ZM16.53,37.24c4.13.07,6.42-3.56,6.36-9.15.06-5.47-2.17-9.02-6.36-9.02s-6.36,3.43-6.36,9.02,2.41,9.22,6.36,9.15Z"/>
    <path class="cls-1" d="M37.18,28.22c0-10.36,6.54-17.35,16.65-17.42,9.47.07,16.27,6.04,16.27,17.29v2.67h-22.63v.13c.07,4.32,2.67,7.18,6.87,7.12,2.92.06,5.02-1.21,5.85-3.18h9.79c-1.27,6.55-7.06,10.81-15.77,10.81-10.55,0-17.03-6.61-17.03-17.42ZM60.32,24.53c-.06-3.56-2.6-6.1-6.23-6.1s-6.42,2.61-6.61,6.1h12.84Z"/>
  </g>
  <g>
    <path class="cls-1" d="M152.37,0h10.43v17.03h.26c1.27-2.99,4.13-6.16,9.53-6.23,7.12.07,13.48,5.53,13.48,17.42s-6.04,17.29-13.48,17.29c-5.22,0-8.2-2.92-9.53-5.97h-.39v5.47h-10.29V0ZM168.89,37.24c4.13.07,6.42-3.56,6.36-9.15.06-5.47-2.17-9.02-6.36-9.02s-6.36,3.43-6.36,9.02,2.41,9.22,6.36,9.15Z"/>
    <path class="cls-1" d="M189.55,28.22c0-10.36,6.54-17.35,16.65-17.42,9.47.07,16.27,6.04,16.27,17.29v2.67h-22.63v.13c.07,4.32,2.67,7.18,6.87,7.12,2.92.06,5.02-1.21,5.85-3.18h9.79c-1.27,6.55-7.06,10.81-15.77,10.81-10.55,0-17.03-6.61-17.03-17.42ZM212.68,24.53c-.06-3.56-2.6-6.1-6.23-6.1s-6.42,2.61-6.61,6.1h12.84Z"/>
  </g>
  <g>
    <polygon class="cls-1" points="119.5 20.44 135.96 20.44 140.33 8.64 123.94 8.64 127.2 0 110.8 0 108.35 8.64 89.29 8.64 84.92 20.44 105.01 20.44 102.96 27.68 86.51 27.68 82.15 39.48 99.62 39.48 97.87 45.64 110.02 45.64 112.34 39.48 133.18 39.48 137.55 27.68 116.78 27.68 119.5 20.44"/>
    <path class="cls-1" d="M102.57,49.31c-4.15,0-7.54,3.3-7.45,7.45-.09,4.07,3.3,7.45,7.45,7.45s7.45-3.39,7.45-7.45-3.47-7.45-7.45-7.45Z"/>
  </g>
</svg>