<?xml version="1.0" encoding="UTF-8"?>
<svg id="_레이어_1" data-name="레이어 1" xmlns="http://www.w3.org/2000/svg" viewBox="0 0 205.35 56.48">
  <defs>
    <style>
      .cls-1 {
        fill: #151519;
      }

      .cls-1, .cls-2 {
        stroke-width: 0px;
      }

      .cls-2 {
        fill: #003dff;
      }
    </style>
  </defs>
  <g>
    <path class="cls-1" d="M33.93,20.33c0,1.87-.42,3.61-1.27,5.2-.85,1.6-2.19,2.89-4.03,3.88,1.09.34,2.08.8,2.99,1.38.9.58,1.67,1.3,2.3,2.17.63.87,1.11,1.88,1.45,3.04.34,1.16.51,2.47.51,3.93,0,1.8-.3,3.37-.89,4.69s-1.4,2.42-2.42,3.29c-1.02.87-2.19,1.51-3.52,1.94-1.33.42-2.72.64-4.18.64H0V10.34h22.91c1.46,0,2.86.19,4.18.56,1.33.37,2.5.96,3.52,1.76,1.02.8,1.83,1.84,2.42,3.11.6,1.28.89,2.8.89,4.57ZM21.68,25.9c1.46-.37,2.57-1.01,3.32-1.91.75-.9,1.12-1.98,1.12-3.24,0-1.46-.47-2.57-1.4-3.32-.93-.75-2.05-1.12-3.34-1.12h-13.37v13.26l13.67-3.67ZM27.6,38.35c0-1.73-.65-3.16-1.94-4.29-1.29-1.12-2.98-1.8-5.05-2.04l-12.6,3.67v8.88h13.11c2.11,0,3.72-.53,4.82-1.58,1.11-1.05,1.66-2.6,1.66-4.64Z"/>
    <path class="cls-1" d="M46.32,39.16c.71,1.63,1.8,2.89,3.27,3.78,1.46.88,3.28,1.33,5.46,1.33,2.04,0,3.9-.34,5.59-1.02,1.68-.68,3.21-1.84,4.57-3.47l5.15,3.93c-1.77,2.14-3.9,3.81-6.38,5-2.48,1.19-5.19,1.79-8.11,1.79-2.52,0-4.86-.38-7.04-1.15-2.18-.76-4.07-1.85-5.69-3.27-1.62-1.41-2.89-3.13-3.83-5.15-.93-2.02-1.4-4.29-1.4-6.81s.44-4.69,1.33-6.71c.88-2.02,2.09-3.76,3.62-5.2,1.53-1.45,3.34-2.57,5.43-3.37,2.09-.8,4.36-1.2,6.81-1.2s4.57.39,6.56,1.17c1.99.78,3.72,1.86,5.18,3.24,1.46,1.38,2.63,3.03,3.5,4.95.87,1.92,1.35,4.02,1.46,6.3l-25.46,5.87ZM55.46,23.86c-3.03,0-5.42.84-7.17,2.53-1.75,1.68-2.71,3.97-2.88,6.86l18.37-4.39c-.89-1.77-2.04-3.04-3.47-3.83-1.43-.78-3.04-1.17-4.85-1.17Z"/>
  </g>
  <g>
    <path class="cls-1" d="M167.5,20.33c0,1.87-.42,3.61-1.27,5.2-.85,1.6-2.19,2.89-4.03,3.88,1.09.34,2.08.8,2.99,1.38.9.58,1.67,1.3,2.3,2.17.63.87,1.11,1.88,1.45,3.04.34,1.16.51,2.47.51,3.93,0,1.8-.3,3.37-.89,4.69s-1.4,2.42-2.42,3.29c-1.02.87-2.19,1.51-3.52,1.94-1.33.42-2.72.64-4.18.64h-24.85V10.34h22.91c1.46,0,2.86.19,4.18.56,1.33.37,2.5.96,3.52,1.76,1.02.8,1.83,1.84,2.42,3.11.6,1.28.89,2.8.89,4.57ZM155.25,25.9c1.46-.37,2.57-1.01,3.32-1.91.75-.9,1.12-1.98,1.12-3.24,0-1.46-.47-2.57-1.4-3.32-.93-.75-2.05-1.12-3.34-1.12h-13.37v13.26l13.67-3.67ZM161.17,38.35c0-1.73-.65-3.16-1.94-4.29-1.29-1.12-2.98-1.8-5.05-2.04l-12.6,3.67v8.88h13.11c2.11,0,3.72-.53,4.82-1.58,1.11-1.05,1.66-2.6,1.66-4.64Z"/>
    <path class="cls-1" d="M179.89,39.16c.71,1.63,1.8,2.89,3.27,3.78,1.46.88,3.28,1.33,5.46,1.33,2.04,0,3.9-.34,5.59-1.02,1.68-.68,3.21-1.84,4.57-3.47l5.15,3.93c-1.77,2.14-3.9,3.81-6.38,5-2.48,1.19-5.19,1.79-8.11,1.79-2.52,0-4.86-.38-7.04-1.15-2.18-.76-4.07-1.85-5.69-3.27-1.62-1.41-2.89-3.13-3.83-5.15-.93-2.02-1.4-4.29-1.4-6.81s.44-4.69,1.33-6.71c.88-2.02,2.09-3.76,3.62-5.2,1.53-1.45,3.34-2.57,5.43-3.37,2.09-.8,4.36-1.2,6.81-1.2s4.57.39,6.56,1.17c1.99.78,3.72,1.86,5.18,3.24,1.46,1.38,2.63,3.03,3.5,4.95.87,1.92,1.35,4.02,1.46,6.3l-25.46,5.87ZM189.03,23.86c-3.03,0-5.42.84-7.17,2.53-1.75,1.68-2.71,3.97-2.88,6.86l18.37-4.39c-.89-1.77-2.04-3.04-3.47-3.83-1.43-.78-3.04-1.17-4.85-1.17Z"/>
  </g>
  <g>
    <polygon class="cls-1" points="82.88 10.34 127.22 10.34 124.85 18.66 80.51 18.66 82.88 10.34"/>
    <polygon class="cls-1" points="80.51 24.41 124.85 24.41 122.48 32.74 78.13 32.74 80.51 24.41"/>
    <path class="cls-2" d="M96.24,44.5c3.2,0,5.99,2.66,5.99,5.99s-2.79,5.99-5.99,5.99-6.06-2.72-5.99-5.99c-.07-3.33,2.66-5.99,5.99-5.99Z"/>
    <polygon class="cls-2" points="116.66 0 100.51 0 93.15 41.72 101.48 41.72 116.66 0"/>
  </g>
</svg>